<?xml version="1.0" encoding="UTF-8" standalone="no"?>
<!-- Created with Inkscape (http://www.inkscape.org/) -->

<svg
   xmlns:dc="http://purl.org/dc/elements/1.1/"
   xmlns:cc="http://creativecommons.org/ns#"
   xmlns:rdf="http://www.w3.org/1999/02/22-rdf-syntax-ns#"
   xmlns:svg="http://www.w3.org/2000/svg"
   xmlns="http://www.w3.org/2000/svg"
   xmlns:sodipodi="http://sodipodi.sourceforge.net/DTD/sodipodi-0.dtd"
   xmlns:inkscape="http://www.inkscape.org/namespaces/inkscape"
   width="106.803mm"
   height="70mm"
   viewBox="0 0 106.803 70"
   version="1.1"
   id="svg1676"
   inkscape:version="0.92.4 (5da689c313, 2019-01-14)"
   sodipodi:docname="Trovis_.svg">
  <defs
     id="defs1670" />
  <sodipodi:namedview
     id="base"
     pagecolor="#ffffff"
     bordercolor="#666666"
     borderopacity="1.0"
     inkscape:pageopacity="0.0"
     inkscape:pageshadow="2"
     inkscape:zoom="1.979899"
     inkscape:cx="309.6868"
     inkscape:cy="119.995"
     inkscape:document-units="mm"
     inkscape:current-layer="layer1"
     showgrid="false"
     inkscape:window-width="1920"
     inkscape:window-height="1177"
     inkscape:window-x="1912"
     inkscape:window-y="-8"
     inkscape:window-maximized="1" />
  <metadata
     id="metadata1673">
    <rdf:RDF>
      <cc:Work
         rdf:about="">
        <dc:format>image/svg+xml</dc:format>
        <dc:type
           rdf:resource="http://purl.org/dc/dcmitype/StillImage" />
        <dc:title></dc:title>
      </cc:Work>
    </rdf:RDF>
  </metadata>
  <g
     inkscape:label="Ebene 1"
     inkscape:groupmode="layer"
     id="layer1"
     transform="translate(0,-227)">
    <rect
       style="fill:#cdcdcd;fill-opacity:1;stroke:none;stroke-width:0.52275997;stroke-linecap:butt;stroke-linejoin:round;stroke-miterlimit:3;stroke-dasharray:none;stroke-dashoffset:0;stroke-opacity:1"
       id="rect2163"
       width="106.80316"
       height="70"
       x="0.10525504"
       y="227.0601" />
    <rect
       style="fill:#696969;fill-opacity:1;stroke:none;stroke-width:0.52275997;stroke-linecap:butt;stroke-linejoin:round;stroke-miterlimit:3;stroke-dasharray:none;stroke-dashoffset:0;stroke-opacity:1"
       id="rect2199"
       width="50.026413"
       height="36.895638"
       x="47.634975"
       y="236.12219" />
    <g
       id="g1730"
       transform="matrix(0.34850751,0,0,0.34850751,46.525329,302.44221)">
      <circle
         r="15.033051"
         cy="-194.14453"
         cx="-92.998947"
         id="path2167"
         style="fill:#000000;fill-opacity:1;stroke:none;stroke-width:1.41643333;stroke-linecap:butt;stroke-linejoin:round;stroke-miterlimit:3;stroke-dasharray:none;stroke-dashoffset:0;stroke-opacity:1" />
      <path
         inkscape:connector-curvature="0"
         id="path1655"
         d="m -105.31342,-191.69367 c -0.11971,-0.0231 -0.12554,-0.0489 -0.12554,-0.55525 v -0.53107 l 0.22196,0.0375 c 0.76227,0.12878 0.88897,-0.2196 0.37535,-1.03199 -0.88518,-1.4001 -0.22541,-2.74074 1.24901,-2.53796 l 0.27387,0.0377 v 0.53916 0.53916 l -0.24822,-0.0198 c -0.62593,-0.0498 -0.67584,0.41069 -0.13075,1.20643 0.94615,1.38122 0.0678,2.64033 -1.61568,2.31608 z m 13.028005,-5.9e-4 c -0.153435,-0.0232 -0.153435,-0.0232 -0.153435,-0.54873 v -0.52548 l 0.320819,0.0329 c 0.662738,0.0681 0.792063,-0.28445 0.344707,-0.93982 -0.968398,-1.41871 -0.329815,-2.84488 1.180795,-2.63711 l 0.273863,0.0377 v 0.53916 0.53916 l -0.24822,-0.0198 c -0.605922,-0.0482 -0.660868,0.30791 -0.173832,1.12665 0.94337,1.58586 0.246395,2.6666 -1.544697,2.39528 z m 4.129455,-0.0652 c -1.710655,-0.56403 -2.203115,-2.68163 -0.908385,-3.90614 1.557691,-1.4732 4.06065,-0.2912 3.923068,1.85264 -0.09417,1.46737 -1.626558,2.51118 -3.014683,2.0535 z m 1.3256,-1.20377 c 0.671921,-0.39377 0.757808,-1.40029 0.163973,-1.92168 -0.758503,-0.66598 -1.981339,-0.1126 -1.977215,0.89476 0.0036,0.95297 0.988207,1.51043 1.813242,1.02692 z m -15.87467,-0.24163 c 0,-1.1554 0.0191,-1.56841 0.0845,-1.81934 0.34904,-1.34002 2.017,-1.73601 2.948466,-0.7 0.40663,0.45227 0.42624,0.56296 0.42624,2.40597 v 1.6081 h -0.58585 -0.585826 v -0.64164 -0.64163 h -0.55795 -0.55795 v 0.64163 0.64164 h -0.58583 -0.58585 z m 2.29656,-1.07312 c 0.0338,-0.59981 -0.14687,-0.8914 -0.55214,-0.8914 -0.36601,0 -0.57274,0.28999 -0.57274,0.80344 v 0.42404 h 0.55299 0.55299 z m 1.898236,0.90797 c 0.0166,-1.56518 0.0246,-1.67484 0.13876,-1.92192 0.3976,-0.86046 1.456842,-1.26186 2.306416,-0.874 l 0.306434,0.1399 0.303371,-0.13806 c 0.847187,-0.38552 1.914912,0.0187 2.310646,0.87479 0.112705,0.2438 0.120979,0.35919 0.13759,1.91929 l 0.01763,1.65988 h -0.58712 -0.58712 l -0.01639,-1.58574 c -0.01888,-1.82815 -0.03803,-1.8979 -0.511209,-1.86218 -0.435279,0.0329 -0.451231,0.097 -0.470131,1.88965 l -0.01648,1.55827 h -0.580164 -0.580173 l -0.0171,-1.58574 c -0.01951,-1.80945 -0.03634,-1.87351 -0.491382,-1.87351 -0.455034,0 -0.471841,0.064 -0.491391,1.87351 l -0.0171,1.58574 h -0.586387 -0.58639 z m 13.994198,0.0719 c 0,-1.48682 0.008,-1.60842 0.119581,-1.90766 0.448604,-1.19902 2.020154,-1.49415 2.889741,-0.54268 0.416192,0.45538 0.439946,0.57477 0.484426,2.4343 l 0.03839,1.60409 h -0.594379 -0.59438 l -3.11e-4,-1.38091 c -3.21e-4,-1.78926 -0.0839,-2.07834 -0.600374,-2.07834 -0.514994,0 -0.570999,0.19462 -0.570999,1.98433 v 1.47492 h -0.585846 -0.585838 z"
         style="fill:#ffffff;fill-opacity:1;stroke-width:0.05579446" />
    </g>
    <text
       xml:space="preserve"
       style="font-style:normal;font-weight:normal;font-size:10.4552002px;line-height:1.25;font-family:sans-serif;letter-spacing:0px;word-spacing:0px;fill:#000000;fill-opacity:1;stroke:none;stroke-width:0.26137999"
       x="75.2836"
       y="233.53304"
       id="text1659"><tspan
         sodipodi:role="line"
         id="tspan1657"
         x="75.2836"
         y="233.53304"
         style="font-style:normal;font-variant:normal;font-weight:bold;font-stretch:normal;font-size:3.13655996px;font-family:Arial;-inkscape-font-specification:'Arial Bold';font-variant-ligatures:normal;font-variant-caps:normal;font-variant-numeric:normal;font-feature-settings:normal;text-align:start;writing-mode:lr-tb;text-anchor:start;stroke-width:0.26137999">TROVIS 5573-1</tspan></text>
    <g
       id="g1718"
       transform="matrix(0.34850751,0,0,0.34850751,50.131679,279.60205)">
      <circle
         r="16.93351"
         cy="-71.561058"
         cx="-80.528328"
         id="path2167-2"
         style="fill:#000000;fill-opacity:1;stroke:#000000;stroke-width:1.59549701;stroke-linecap:butt;stroke-linejoin:round;stroke-miterlimit:3;stroke-dasharray:none;stroke-dashoffset:0;stroke-opacity:1" />
      <rect
         y="-89.246284"
         x="-81.589676"
         height="8.7384872"
         width="2.1226578"
         id="rect1677"
         style="fill:#ffffff;fill-opacity:1;fill-rule:evenodd;stroke:#ffeff9;stroke-width:0;stroke-linecap:butt;stroke-miterlimit:3;stroke-dasharray:none;stroke-dashoffset:0;stroke-opacity:1" />
    </g>
    <g
       id="g1714"
       transform="matrix(0.34850751,0,0,0.34850751,78.520049,308.82266)">
      <circle
         r="23.268373"
         cy="-63.594406"
         cx="-16.732021"
         id="path2167-2-5"
         style="fill:#000000;fill-opacity:1;fill-rule:evenodd;stroke:#000000;stroke-width:2.19237614;stroke-linecap:butt;stroke-linejoin:round;stroke-miterlimit:3;stroke-dasharray:none;stroke-dashoffset:0;stroke-opacity:1" />
      <rect
         y="-87.953506"
         x="-17.946968"
         height="2.0780413"
         width="2.4040854"
         id="rect1677-0"
         style="fill:#585858;fill-opacity:1;fill-rule:evenodd;stroke:#ffeff9;stroke-width:0;stroke-linecap:butt;stroke-miterlimit:3;stroke-dasharray:none;stroke-dashoffset:0;stroke-opacity:1" />
    </g>
  </g>
</svg>
